<svg width="732.0" height="1736.0" viewBox="0 0 732.0 1736.0" xmlns="http://www.w3.org/2000/svg">
<style>/* font and background color specifications */
svg {
    font-family: SFMono-Regular,Consolas,Liberation Mono,Menlo,monospace;
    font-size: 14px;
    font-kerning: normal;
    text-rendering: optimizeLegibility;
    fill: #24292e;
}

/* default key styling */
rect {
    fill: #f6f8fa;
    stroke: #c9cccf;
    stroke-width: 1;
}

/* color accent for combo boxes */
rect.combo {
    fill: #cdf;
}

/* color accent for held keys */
rect.held, rect.combo.held {
    fill: #fdd;
}

/* color accent for ghost (optional) keys */
rect.ghost, rect.combo.ghost {
    fill: #ddd;
}

text {
    text-anchor: middle;
    dominant-baseline: middle;
}

/* styling for layer labels */
text.label {
    font-weight: bold;
    text-anchor: start;
    stroke: white;
    stroke-width: 2;
    paint-order: stroke;
}

/* styling for combo tap, and key hold/shifted label text */
text.combo, text.hold, text.shifted {
    font-size: 11px;
}

text.hold {
    text-anchor: middle;
    dominant-baseline: auto;
}

text.shifted {
    text-anchor: middle;
    dominant-baseline: hanging;
}

/* styling for hold/shifted label text in combo box */
text.combo.hold, text.combo.shifted {
    font-size: 8px;
}

/* styling for combo dendrons */
path {
    stroke-width: 1;
    stroke: gray;
    fill: none;
}
</style>
<g class="layer-BASE">
<text x="30.0" y="28.0" class="label">BASE:</text>
<rect rx="6.0" ry="6.0" x="32.0" y="110.08000000000001" width="52.0" height="52.0" class=""/>
<text x="58.0" y="136.08" class="tap">A</text>
<rect rx="6.0" ry="6.0" x="88.0" y="75.36" width="52.0" height="52.0" class=""/>
<text x="114.0" y="101.36" class="tap">Z</text>
<rect rx="6.0" ry="6.0" x="144.0" y="58.0" width="52.0" height="52.0" class=""/>
<text x="170.0" y="84.0" class="tap">E</text>
<rect rx="6.0" ry="6.0" x="200.0" y="73.68" width="52.0" height="52.0" class=""/>
<text x="226.0" y="99.68" class="tap">R</text>
<rect rx="6.0" ry="6.0" x="256.0" y="81.52" width="52.0" height="52.0" class=""/>
<text x="282.0" y="107.52" class="tap">T</text>
<rect rx="6.0" ry="6.0" x="424.0" y="81.52" width="52.0" height="52.0" class=""/>
<text x="450.0" y="107.52" class="tap">Y</text>
<rect rx="6.0" ry="6.0" x="480.0" y="73.68" width="52.0" height="52.0" class=""/>
<text x="506.0" y="99.68" class="tap">U</text>
<rect rx="6.0" ry="6.0" x="536.0" y="58.0" width="52.0" height="52.0" class=""/>
<text x="562.0" y="84.0" class="tap">I</text>
<rect rx="6.0" ry="6.0" x="592.0" y="75.36" width="52.0" height="52.0" class=""/>
<text x="618.0" y="101.36" class="tap">O</text>
<rect rx="6.0" ry="6.0" x="648.0" y="110.08000000000001" width="52.0" height="52.0" class=""/>
<text x="674.0" y="136.08" class="tap">P</text>
<rect rx="6.0" ry="6.0" x="32.0" y="166.07999999999998" width="52.0" height="52.0" class=""/>
<text x="58.0" y="192.07999999999998" class="tap">Q</text>
<text x="58.0" y="216.07999999999998" class="hold">TAB</text>
<rect rx="6.0" ry="6.0" x="88.0" y="131.36" width="52.0" height="52.0" class=""/>
<text x="114.0" y="157.36" class="tap">S</text>
<text x="114.0" y="181.36" class="hold">LALT</text>
<rect rx="6.0" ry="6.0" x="144.0" y="114.0" width="52.0" height="52.0" class=""/>
<text x="170.0" y="140.0" class="tap">D</text>
<text x="170.0" y="164.0" class="hold">LCTRL</text>
<rect rx="6.0" ry="6.0" x="200.0" y="129.68" width="52.0" height="52.0" class=""/>
<text x="226.0" y="155.68" class="tap">F</text>
<text x="226.0" y="179.68" class="hold">LSHFT</text>
<rect rx="6.0" ry="6.0" x="256.0" y="137.51999999999998" width="52.0" height="52.0" class=""/>
<text x="282.0" y="163.51999999999998" class="tap">G</text>
<text x="282.0" y="187.51999999999998" class="hold">LGUI</text>
<rect rx="6.0" ry="6.0" x="424.0" y="137.51999999999998" width="52.0" height="52.0" class=""/>
<text x="450.0" y="163.51999999999998" class="tap">H</text>
<text x="450.0" y="187.51999999999998" class="hold">ALTGR</text>
<rect rx="6.0" ry="6.0" x="480.0" y="129.68" width="52.0" height="52.0" class=""/>
<text x="506.0" y="155.68" class="tap">J</text>
<text x="506.0" y="179.68" class="hold">RSHFT</text>
<rect rx="6.0" ry="6.0" x="536.0" y="114.0" width="52.0" height="52.0" class=""/>
<text x="562.0" y="140.0" class="tap">K</text>
<text x="562.0" y="164.0" class="hold">RCTRL</text>
<rect rx="6.0" ry="6.0" x="592.0" y="131.36" width="52.0" height="52.0" class=""/>
<text x="618.0" y="157.36" class="tap">L</text>
<text x="618.0" y="181.36" class="hold">ENTER</text>
<rect rx="6.0" ry="6.0" x="648.0" y="166.07999999999998" width="52.0" height="52.0" class=""/>
<text x="674.0" y="192.07999999999998" class="tap">M</text>
<text x="674.0" y="216.07999999999998" class="hold">BKSPC</text>
<rect rx="6.0" ry="6.0" x="32.0" y="222.08" width="52.0" height="52.0" class=""/>
<text x="58.0" y="248.08" class="tap">Z</text>
<rect rx="6.0" ry="6.0" x="88.0" y="187.36" width="52.0" height="52.0" class=""/>
<text x="114.0" y="213.36" class="tap">X</text>
<rect rx="6.0" ry="6.0" x="144.0" y="170.0" width="52.0" height="52.0" class=""/>
<text x="170.0" y="196.0" class="tap">C</text>
<rect rx="6.0" ry="6.0" x="200.0" y="185.67999999999998" width="52.0" height="52.0" class=""/>
<text x="226.0" y="211.67999999999998" class="tap">V</text>
<rect rx="6.0" ry="6.0" x="256.0" y="193.51999999999998" width="52.0" height="52.0" class=""/>
<text x="282.0" y="219.51999999999998" class="tap">B</text>
<rect rx="6.0" ry="6.0" x="424.0" y="193.51999999999998" width="52.0" height="52.0" class=""/>
<text x="450.0" y="219.51999999999998" class="tap">N</text>
<rect rx="6.0" ry="6.0" x="480.0" y="185.67999999999998" width="52.0" height="52.0" class=""/>
<text x="506.0" y="211.67999999999998" class="tap">,</text>
<rect rx="6.0" ry="6.0" x="536.0" y="170.0" width="52.0" height="52.0" class=""/>
<text x="562.0" y="196.0" class="tap">;</text>
<rect rx="6.0" ry="6.0" x="592.0" y="187.36" width="52.0" height="52.0" class=""/>
<text x="618.0" y="213.36" class="tap">:</text>
<rect rx="6.0" ry="6.0" x="648.0" y="222.08" width="52.0" height="52.0" class=""/>
<text x="674.0" y="248.08" class="tap">!</text>
<rect rx="6.0" ry="6.0" x="228.0" y="268.0" width="52.0" height="52.0" class=""/>
<text x="254.0" y="294.0" class="tap">TAB</text>
<text x="254.0" y="318.0" class="hold">ACCNUM</text>
<rect rx="6.0" ry="6.0" x="284.0" y="282.0" width="52.0" height="52.0" class=""/>
<text x="310.0" y="308.0" class="tap">SPACE</text>
<rect rx="6.0" ry="6.0" x="396.0" y="282.0" width="52.0" height="52.0" class=""/>
<text x="422.0" y="308.0" class="tap">ENTER</text>
<rect rx="6.0" ry="6.0" x="452.0" y="268.0" width="52.0" height="52.0" class=""/>
<text x="478.0" y="294.0" class="tap">BKSPC</text>
<text x="478.0" y="318.0" class="hold">SYMNAV</text>
</g>
<g class="layer-ACCNUM">
<text x="30.0" y="364.0" class="label">ACCNUM:</text>
<rect rx="6.0" ry="6.0" x="32.0" y="446.08000000000004" width="52.0" height="52.0" class=""/>
<text x="58.0" y="472.08000000000004" class="tap">à</text>
<text x="58.0" y="448.08000000000004" class="shifted">@</text>
<rect rx="6.0" ry="6.0" x="88.0" y="411.36" width="52.0" height="52.0" class=""/>
<text x="114.0" y="437.36" class="tap">é</text>
<text x="114.0" y="413.36" class="shifted">~</text>
<rect rx="6.0" ry="6.0" x="144.0" y="394.0" width="52.0" height="52.0" class=""/>
<text x="170.0" y="420.0" class="tap">è</text>
<text x="170.0" y="396.0" class="shifted">`</text>
<rect rx="6.0" ry="6.0" x="200.0" y="409.68" width="52.0" height="52.0" class=""/>
<text x="226.0" y="435.68" class="tap">ù</text>
<rect rx="6.0" ry="6.0" x="256.0" y="417.52" width="52.0" height="52.0" class=""/>
<text x="282.0" y="443.52" class="tap">ç</text>
<rect rx="6.0" ry="6.0" x="424.0" y="417.52" width="52.0" height="52.0" class=""/>
<text x="450.0" y="443.52" class="tap">*</text>
<rect rx="6.0" ry="6.0" x="480.0" y="409.68" width="52.0" height="52.0" class=""/>
<text x="506.0" y="435.68" class="tap">7</text>
<rect rx="6.0" ry="6.0" x="536.0" y="394.0" width="52.0" height="52.0" class=""/>
<text x="562.0" y="420.0" class="tap">8</text>
<rect rx="6.0" ry="6.0" x="592.0" y="411.36" width="52.0" height="52.0" class=""/>
<text x="618.0" y="437.36" class="tap">9</text>
<rect rx="6.0" ry="6.0" x="648.0" y="446.08000000000004" width="52.0" height="52.0" class=""/>
<text x="674.0" y="472.08000000000004" class="tap">/</text>
<rect rx="6.0" ry="6.0" x="32.0" y="502.0799999999999" width="52.0" height="52.0" class=""/>
<text x="58.0" y="528.0799999999999" class="tap">À</text>
<text x="58.0" y="552.0799999999999" class="hold">TAB</text>
<rect rx="6.0" ry="6.0" x="88.0" y="467.36" width="52.0" height="52.0" class=""/>
<text x="114.0" y="493.36" class="tap">É</text>
<text x="114.0" y="517.36" class="hold">LALT</text>
<rect rx="6.0" ry="6.0" x="144.0" y="450.0" width="52.0" height="52.0" class=""/>
<text x="170.0" y="476.0" class="tap">È</text>
<text x="170.0" y="500.0" class="hold">LCTRL</text>
<rect rx="6.0" ry="6.0" x="200.0" y="465.68" width="52.0" height="52.0" class=""/>
<text x="226.0" y="491.68" class="tap">Ù</text>
<text x="226.0" y="515.6800000000001" class="hold">LSHFT</text>
<rect rx="6.0" ry="6.0" x="256.0" y="473.52" width="52.0" height="52.0" class=""/>
<text x="282.0" y="499.52" class="tap">Ç</text>
<text x="282.0" y="523.52" class="hold">LGUI</text>
<rect rx="6.0" ry="6.0" x="424.0" y="473.52" width="52.0" height="52.0" class=""/>
<text x="450.0" y="499.52" class="tap">+</text>
<rect rx="6.0" ry="6.0" x="480.0" y="465.68" width="52.0" height="52.0" class=""/>
<text x="506.0" y="491.68" class="tap">4</text>
<rect rx="6.0" ry="6.0" x="536.0" y="450.0" width="52.0" height="52.0" class=""/>
<text x="562.0" y="476.0" class="tap">5</text>
<rect rx="6.0" ry="6.0" x="592.0" y="467.36" width="52.0" height="52.0" class=""/>
<text x="618.0" y="493.36" class="tap">6</text>
<rect rx="6.0" ry="6.0" x="648.0" y="502.0799999999999" width="52.0" height="52.0" class=""/>
<text x="674.0" y="528.0799999999999" class="tap">-</text>
<rect rx="6.0" ry="6.0" x="32.0" y="558.08" width="52.0" height="52.0" class=""/>
<text x="58.0" y="584.08" class="tap">²</text>
<rect rx="6.0" ry="6.0" x="88.0" y="523.36" width="52.0" height="52.0" class=""/>
<text x="114.0" y="549.36" class="tap">ë</text>
<text x="114.0" y="573.36" class="hold">Ë</text>
<rect rx="6.0" ry="6.0" x="144.0" y="506.0" width="52.0" height="52.0" class=""/>
<text x="170.0" y="532.0" class="tap">ï</text>
<text x="170.0" y="556.0" class="hold">Ï</text>
<rect rx="6.0" ry="6.0" x="200.0" y="521.68" width="52.0" height="52.0" class=""/>
<text x="226.0" y="547.68" class="tap">ü</text>
<text x="226.0" y="571.68" class="hold">Ü</text>
<rect rx="6.0" ry="6.0" x="256.0" y="529.52" width="52.0" height="52.0" class=""/>
<text x="282.0" y="555.52" class="tap">^</text>
<text x="282.0" y="531.52" class="shifted">¨</text>
<rect rx="6.0" ry="6.0" x="424.0" y="529.52" width="52.0" height="52.0" class=""/>
<text x="450.0" y="555.52" class="tap">0</text>
<rect rx="6.0" ry="6.0" x="480.0" y="521.68" width="52.0" height="52.0" class=""/>
<text x="506.0" y="547.68" class="tap">1</text>
<rect rx="6.0" ry="6.0" x="536.0" y="506.0" width="52.0" height="52.0" class=""/>
<text x="562.0" y="532.0" class="tap">2</text>
<rect rx="6.0" ry="6.0" x="592.0" y="523.36" width="52.0" height="52.0" class=""/>
<text x="618.0" y="549.36" class="tap">3</text>
<rect rx="6.0" ry="6.0" x="648.0" y="558.08" width="52.0" height="52.0" class=""/>
<text x="674.0" y="584.08" class="tap">.</text>
<rect rx="6.0" ry="6.0" x="228.0" y="604.0" width="52.0" height="52.0" class="held"/>
<rect rx="6.0" ry="6.0" x="284.0" y="618.0" width="52.0" height="52.0" class=""/>
<text x="310.0" y="644.0" class="tap">SPACE</text>
<rect rx="6.0" ry="6.0" x="396.0" y="618.0" width="52.0" height="52.0" class=""/>
<text x="422.0" y="644.0" class="tap">ENTER</text>
<rect rx="6.0" ry="6.0" x="452.0" y="604.0" width="52.0" height="52.0" class=""/>
<text x="478.0" y="630.0" class="tap">BKSPC</text>
<text x="478.0" y="654.0" class="hold">FUNCTIONS</text>
<rect rx="6.0" ry="6.0" x="130.0" y="416.68" width="24" height="24" class="combo"/>
<text x="142.0" y="428.68" class="combo">ê</text>
<rect rx="6.0" ry="6.0" x="130.0" y="472.68" width="24" height="24" class="combo"/>
<text x="142.0" y="484.68" class="combo">Ê</text>
</g>
<g class="layer-SYMNAV">
<text x="30.0" y="700.0" class="label">SYMNAV:</text>
<rect rx="6.0" ry="6.0" x="32.0" y="782.08" width="52.0" height="52.0" class=""/>
<text x="58.0" y="808.08" class="tap">`</text>
<rect rx="6.0" ry="6.0" x="88.0" y="747.36" width="52.0" height="52.0" class=""/>
<text x="114.0" y="773.36" class="tap">&quot;</text>
<rect rx="6.0" ry="6.0" x="144.0" y="730.0" width="52.0" height="52.0" class=""/>
<text x="170.0" y="756.0" class="tap">&#x27;</text>
<rect rx="6.0" ry="6.0" x="200.0" y="745.68" width="52.0" height="52.0" class=""/>
<text x="226.0" y="771.68" class="tap">_</text>
<rect rx="6.0" ry="6.0" x="256.0" y="753.52" width="52.0" height="52.0" class=""/>
<text x="282.0" y="779.52" class="tap">|</text>
<rect rx="6.0" ry="6.0" x="424.0" y="753.52" width="52.0" height="52.0" class=""/>
<text x="450.0" y="779.52" class="tap">
<tspan x="450.0" dy="-0.6em">PAGE</tspan><tspan x="450.0" dy="1.2em">UP</tspan></text>
<rect rx="6.0" ry="6.0" x="480.0" y="745.68" width="52.0" height="52.0" class=""/>
<text x="506.0" y="771.68" class="tap">HOME</text>
<rect rx="6.0" ry="6.0" x="536.0" y="730.0" width="52.0" height="52.0" class=""/>
<text x="562.0" y="756.0" class="tap">UP</text>
<rect rx="6.0" ry="6.0" x="592.0" y="747.36" width="52.0" height="52.0" class=""/>
<text x="618.0" y="773.36" class="tap">END</text>
<rect rx="6.0" ry="6.0" x="648.0" y="782.08" width="52.0" height="52.0" class=""/>
<text x="674.0" y="808.08" class="tap">ESCAPE</text>
<rect rx="6.0" ry="6.0" x="32.0" y="838.0799999999999" width="52.0" height="52.0" class=""/>
<text x="58.0" y="864.0799999999999" class="tap">&lt;</text>
<text x="58.0" y="888.0799999999999" class="hold">TAB</text>
<rect rx="6.0" ry="6.0" x="88.0" y="803.36" width="52.0" height="52.0" class=""/>
<text x="114.0" y="829.36" class="tap">[</text>
<text x="114.0" y="853.36" class="hold">LALT</text>
<rect rx="6.0" ry="6.0" x="144.0" y="786.0" width="52.0" height="52.0" class=""/>
<text x="170.0" y="812.0" class="tap">{</text>
<text x="170.0" y="836.0" class="hold">LCTRL</text>
<rect rx="6.0" ry="6.0" x="200.0" y="801.6800000000001" width="52.0" height="52.0" class=""/>
<text x="226.0" y="827.6800000000001" class="tap">(</text>
<text x="226.0" y="851.6800000000001" class="hold">LSHFT</text>
<rect rx="6.0" ry="6.0" x="256.0" y="809.52" width="52.0" height="52.0" class=""/>
<text x="282.0" y="835.52" class="tap">&amp;</text>
<text x="282.0" y="859.52" class="hold">LGUI</text>
<rect rx="6.0" ry="6.0" x="424.0" y="809.52" width="52.0" height="52.0" class=""/>
<text x="450.0" y="835.52" class="tap">
<tspan x="450.0" dy="-0.6em">PAGE</tspan><tspan x="450.0" dy="1.2em">DOWN</tspan></text>
<rect rx="6.0" ry="6.0" x="480.0" y="801.6800000000001" width="52.0" height="52.0" class=""/>
<text x="506.0" y="827.6800000000001" class="tap">LEFT</text>
<rect rx="6.0" ry="6.0" x="536.0" y="786.0" width="52.0" height="52.0" class=""/>
<text x="562.0" y="812.0" class="tap">DOWN</text>
<rect rx="6.0" ry="6.0" x="592.0" y="803.36" width="52.0" height="52.0" class=""/>
<text x="618.0" y="829.36" class="tap">RIGHT</text>
<rect rx="6.0" ry="6.0" x="648.0" y="838.0799999999999" width="52.0" height="52.0" class=""/>
<text x="674.0" y="864.0799999999999" class="tap">TAB</text>
<rect rx="6.0" ry="6.0" x="32.0" y="894.08" width="52.0" height="52.0" class=""/>
<text x="58.0" y="920.08" class="tap">&gt;</text>
<rect rx="6.0" ry="6.0" x="88.0" y="859.36" width="52.0" height="52.0" class=""/>
<text x="114.0" y="885.36" class="tap">]</text>
<rect rx="6.0" ry="6.0" x="144.0" y="842.0" width="52.0" height="52.0" class=""/>
<text x="170.0" y="868.0" class="tap">}</text>
<rect rx="6.0" ry="6.0" x="200.0" y="857.68" width="52.0" height="52.0" class=""/>
<text x="226.0" y="883.68" class="tap">)</text>
<rect rx="6.0" ry="6.0" x="256.0" y="865.52" width="52.0" height="52.0" class=""/>
<text x="282.0" y="891.52" class="tap">=</text>
<rect rx="6.0" ry="6.0" x="424.0" y="865.52" width="52.0" height="52.0" class=""/>
<text x="450.0" y="891.52" class="tap">
<tspan x="450.0" dy="-1.2em">CTRL</tspan><tspan x="450.0" dy="1.2em">+</tspan><tspan x="450.0" dy="1.2em">BSPC</tspan></text>
<rect rx="6.0" ry="6.0" x="480.0" y="857.68" width="52.0" height="52.0" class=""/>
<text x="506.0" y="883.68" class="tap">BSPC</text>
<rect rx="6.0" ry="6.0" x="536.0" y="842.0" width="52.0" height="52.0" class=""/>
<text x="562.0" y="868.0" class="tap">INSERT</text>
<rect rx="6.0" ry="6.0" x="592.0" y="859.36" width="52.0" height="52.0" class=""/>
<text x="618.0" y="885.36" class="tap">DELETE</text>
<rect rx="6.0" ry="6.0" x="648.0" y="894.08" width="52.0" height="52.0" class=""/>
<text x="674.0" y="920.08" class="tap">
<tspan x="674.0" dy="-1.2em">CTRL</tspan><tspan x="674.0" dy="1.2em">+</tspan><tspan x="674.0" dy="1.2em">DELETE</tspan></text>
<rect rx="6.0" ry="6.0" x="228.0" y="940.0" width="52.0" height="52.0" class=""/>
<text x="254.0" y="966.0" class="tap">TAB</text>
<text x="254.0" y="990.0" class="hold">FUNCTIONS</text>
<rect rx="6.0" ry="6.0" x="284.0" y="954.0" width="52.0" height="52.0" class=""/>
<text x="310.0" y="980.0" class="tap">SPACE</text>
<rect rx="6.0" ry="6.0" x="396.0" y="954.0" width="52.0" height="52.0" class=""/>
<text x="422.0" y="980.0" class="tap">ENTER</text>
<rect rx="6.0" ry="6.0" x="452.0" y="940.0" width="52.0" height="52.0" class="held"/>
<rect rx="6.0" ry="6.0" x="46.0" y="824.08" width="24" height="24" class="combo"/>
<text x="58.0" y="836.08" class="combo">%</text>
<rect rx="6.0" ry="6.0" x="102.0" y="789.36" width="24" height="24" class="combo"/>
<text x="114.0" y="801.36" class="combo">$</text>
<rect rx="6.0" ry="6.0" x="158.0" y="772.0" width="24" height="24" class="combo"/>
<text x="170.0" y="784.0" class="combo">£</text>
<rect rx="6.0" ry="6.0" x="214.0" y="787.6800000000001" width="24" height="24" class="combo"/>
<text x="226.0" y="799.6800000000001" class="combo">€</text>
<rect rx="6.0" ry="6.0" x="270.0" y="795.52" width="24" height="24" class="combo"/>
<text x="282.0" y="807.52" class="combo">Ø</text>
<path d="M87.0,892.0799999999999 v-14.400000000000002 a8,8 0 0 0 -8.0,-8.0 h-2.333333333333332"/>
<path d="M87.0,892.0799999999999 v14.400000000000091 a8,8 0 0 1 -8.0,8.0 h-2.333333333333332"/>
<rect rx="6.0" ry="6.0" x="75.0" y="880.0799999999999" width="24" height="24" class="combo"/>
<text x="87.0" y="892.0799999999999" class="combo">^</text>
<path d="M143.0,857.36 v-14.400000000000002 a8,8 0 0 0 -8.0,-8.0 h-2.333333333333332"/>
<path d="M143.0,857.36 v14.400000000000002 a8,8 0 0 1 -8.0,8.0 h-2.333333333333332"/>
<rect rx="6.0" ry="6.0" x="131.0" y="845.36" width="24" height="24" class="combo"/>
<text x="143.0" y="857.36" class="combo">\</text>
<path d="M199.0,840.0 v-14.400000000000002 a8,8 0 0 0 -8.0,-8.0 h-2.333333333333332"/>
<path d="M199.0,840.0 v14.400000000000002 a8,8 0 0 1 -8.0,8.0 h-2.333333333333332"/>
<rect rx="6.0" ry="6.0" x="187.0" y="828.0" width="24" height="24" class="combo"/>
<text x="199.0" y="840.0" class="combo">~</text>
<path d="M255.0,855.68 v-14.39999999999991 a8,8 0 0 0 -8.0,-8.0 h-2.333333333333332"/>
<path d="M255.0,855.68 v14.400000000000002 a8,8 0 0 1 -8.0,8.0 h-2.333333333333332"/>
<rect rx="6.0" ry="6.0" x="243.0" y="843.68" width="24" height="24" class="combo"/>
<text x="255.0" y="855.68" class="combo">@</text>
<path d="M311.0,863.52 v-14.400000000000002 a8,8 0 0 0 -8.0,-8.0 h-2.333333333333332"/>
<path d="M311.0,863.52 v14.400000000000002 a8,8 0 0 1 -8.0,8.0 h-2.333333333333332"/>
<rect rx="6.0" ry="6.0" x="299.0" y="851.52" width="24" height="24" class="combo"/>
<text x="311.0" y="863.52" class="combo">#</text>
</g>
<g class="layer-FUNCTIONS">
<text x="30.0" y="1036.0" class="label">FUNCTIONS:</text>
<rect rx="6.0" ry="6.0" x="32.0" y="1118.08" width="52.0" height="52.0" class=""/>
<text x="58.0" y="1144.08" class="tap">ESCAPE</text>
<rect rx="6.0" ry="6.0" x="88.0" y="1083.36" width="52.0" height="52.0" class=""/>
<text x="114.0" y="1109.36" class="tap">PSCRN</text>
<rect rx="6.0" ry="6.0" x="144.0" y="1066.0" width="52.0" height="52.0" class=""/>
<text x="170.0" y="1092.0" class="tap">SLCK</text>
<rect rx="6.0" ry="6.0" x="200.0" y="1081.68" width="52.0" height="52.0" class=""/>
<text x="226.0" y="1107.68" class="tap">PAUSE</text>
<rect rx="6.0" ry="6.0" x="256.0" y="1089.52" width="52.0" height="52.0" class=""/>
<text x="282.0" y="1115.52" class="tap">
<tspan x="282.0" dy="-0.6em">BRI</tspan><tspan x="282.0" dy="1.2em">UP</tspan></text>
<rect rx="6.0" ry="6.0" x="424.0" y="1089.52" width="52.0" height="52.0" class=""/>
<text x="450.0" y="1115.52" class="tap">
<tspan x="450.0" dy="-0.6em">VOL</tspan><tspan x="450.0" dy="1.2em">UP</tspan></text>
<rect rx="6.0" ry="6.0" x="480.0" y="1081.68" width="52.0" height="52.0" class=""/>
<text x="506.0" y="1107.68" class="tap">F9</text>
<rect rx="6.0" ry="6.0" x="536.0" y="1066.0" width="52.0" height="52.0" class=""/>
<text x="562.0" y="1092.0" class="tap">F10</text>
<rect rx="6.0" ry="6.0" x="592.0" y="1083.36" width="52.0" height="52.0" class=""/>
<text x="618.0" y="1109.36" class="tap">F11</text>
<rect rx="6.0" ry="6.0" x="648.0" y="1118.08" width="52.0" height="52.0" class=""/>
<text x="674.0" y="1144.08" class="tap">F12</text>
<rect rx="6.0" ry="6.0" x="32.0" y="1174.08" width="52.0" height="52.0" class=""/>
<text x="58.0" y="1200.08" class="tap">TAB</text>
<rect rx="6.0" ry="6.0" x="88.0" y="1139.36" width="52.0" height="52.0" class=""/>
<text x="114.0" y="1165.36" class="tap">PREVIOUS</text>
<rect rx="6.0" ry="6.0" x="144.0" y="1122.0" width="52.0" height="52.0" class=""/>
<text x="170.0" y="1148.0" class="tap">
<tspan x="170.0" dy="-0.6em">PLAY</tspan><tspan x="170.0" dy="1.2em">PAUSE</tspan></text>
<rect rx="6.0" ry="6.0" x="200.0" y="1137.68" width="52.0" height="52.0" class=""/>
<text x="226.0" y="1163.68" class="tap">NEXT</text>
<rect rx="6.0" ry="6.0" x="256.0" y="1145.52" width="52.0" height="52.0" class=""/>
<text x="282.0" y="1171.52" class="tap">C+A+S</text>
<rect rx="6.0" ry="6.0" x="424.0" y="1145.52" width="52.0" height="52.0" class=""/>
<text x="450.0" y="1171.52" class="tap">MUTE</text>
<rect rx="6.0" ry="6.0" x="480.0" y="1137.68" width="52.0" height="52.0" class=""/>
<text x="506.0" y="1163.68" class="tap">F5</text>
<rect rx="6.0" ry="6.0" x="536.0" y="1122.0" width="52.0" height="52.0" class=""/>
<text x="562.0" y="1148.0" class="tap">F6</text>
<rect rx="6.0" ry="6.0" x="592.0" y="1139.36" width="52.0" height="52.0" class=""/>
<text x="618.0" y="1165.36" class="tap">F7</text>
<rect rx="6.0" ry="6.0" x="648.0" y="1174.08" width="52.0" height="52.0" class=""/>
<text x="674.0" y="1200.08" class="tap">F8</text>
<rect rx="6.0" ry="6.0" x="32.0" y="1230.08" width="52.0" height="52.0" class=""/>
<text x="58.0" y="1256.08" class="tap">
<tspan x="58.0" dy="-0.6em">CAPS</tspan><tspan x="58.0" dy="1.2em">LOCK</tspan></text>
<rect rx="6.0" ry="6.0" x="88.0" y="1195.3600000000001" width="52.0" height="52.0" class=""/>
<text x="114.0" y="1221.3600000000001" class="tap">REWIND</text>
<rect rx="6.0" ry="6.0" x="144.0" y="1178.0" width="52.0" height="52.0" class=""/>
<text x="170.0" y="1204.0" class="tap">
<tspan x="170.0" dy="-0.6em">WIN</tspan><tspan x="170.0" dy="1.2em">LOCK</tspan></text>
<rect rx="6.0" ry="6.0" x="200.0" y="1193.68" width="52.0" height="52.0" class=""/>
<text x="226.0" y="1219.68" class="tap">FFORWARD</text>
<rect rx="6.0" ry="6.0" x="256.0" y="1201.52" width="52.0" height="52.0" class=""/>
<text x="282.0" y="1227.52" class="tap">
<tspan x="282.0" dy="-0.6em">BRI</tspan><tspan x="282.0" dy="1.2em">DOWN</tspan></text>
<rect rx="6.0" ry="6.0" x="424.0" y="1201.52" width="52.0" height="52.0" class=""/>
<text x="450.0" y="1227.52" class="tap">
<tspan x="450.0" dy="-0.6em">VOL</tspan><tspan x="450.0" dy="1.2em">DOWN</tspan></text>
<rect rx="6.0" ry="6.0" x="480.0" y="1193.68" width="52.0" height="52.0" class=""/>
<text x="506.0" y="1219.68" class="tap">F1</text>
<rect rx="6.0" ry="6.0" x="536.0" y="1178.0" width="52.0" height="52.0" class=""/>
<text x="562.0" y="1204.0" class="tap">F2</text>
<rect rx="6.0" ry="6.0" x="592.0" y="1195.3600000000001" width="52.0" height="52.0" class=""/>
<text x="618.0" y="1221.3600000000001" class="tap">F3</text>
<rect rx="6.0" ry="6.0" x="648.0" y="1230.08" width="52.0" height="52.0" class=""/>
<text x="674.0" y="1256.08" class="tap">F4</text>
<rect rx="6.0" ry="6.0" x="228.0" y="1276.0" width="52.0" height="52.0" class="held"/>
<rect rx="6.0" ry="6.0" x="284.0" y="1290.0" width="52.0" height="52.0" class=""/>
<text x="310.0" y="1316.0" class="tap">SPACE</text>
<rect rx="6.0" ry="6.0" x="396.0" y="1290.0" width="52.0" height="52.0" class=""/>
<text x="422.0" y="1316.0" class="tap">ENTER</text>
<rect rx="6.0" ry="6.0" x="452.0" y="1276.0" width="52.0" height="52.0" class="held"/>
</g>
<g class="layer-BLUETOOTH">
<text x="30.0" y="1372.0" class="label">BLUETOOTH:</text>
<rect rx="6.0" ry="6.0" x="32.0" y="1454.08" width="52.0" height="52.0" class=""/>
<text x="58.0" y="1480.08" class="tap">RESET</text>
<rect rx="6.0" ry="6.0" x="88.0" y="1419.36" width="52.0" height="52.0" class="ghost"/>
<rect rx="6.0" ry="6.0" x="144.0" y="1402.0" width="52.0" height="52.0" class="ghost"/>
<rect rx="6.0" ry="6.0" x="200.0" y="1417.68" width="52.0" height="52.0" class=""/>
<text x="226.0" y="1443.68" class="tap">
<tspan x="226.0" dy="-0.6em">PROFIL</tspan><tspan x="226.0" dy="1.2em">4</tspan></text>
<rect rx="6.0" ry="6.0" x="256.0" y="1425.52" width="52.0" height="52.0" class=""/>
<text x="282.0" y="1451.52" class="tap">
<tspan x="282.0" dy="-0.6em">PROFIL</tspan><tspan x="282.0" dy="1.2em">1</tspan></text>
<rect rx="6.0" ry="6.0" x="424.0" y="1425.52" width="52.0" height="52.0" class="ghost"/>
<rect rx="6.0" ry="6.0" x="480.0" y="1417.68" width="52.0" height="52.0" class="ghost"/>
<rect rx="6.0" ry="6.0" x="536.0" y="1402.0" width="52.0" height="52.0" class="ghost"/>
<rect rx="6.0" ry="6.0" x="592.0" y="1419.36" width="52.0" height="52.0" class="ghost"/>
<rect rx="6.0" ry="6.0" x="648.0" y="1454.08" width="52.0" height="52.0" class=""/>
<text x="674.0" y="1480.08" class="tap">RESET</text>
<rect rx="6.0" ry="6.0" x="32.0" y="1510.08" width="52.0" height="52.0" class=""/>
<text x="58.0" y="1536.08" class="tap">BTLDR</text>
<rect rx="6.0" ry="6.0" x="88.0" y="1475.36" width="52.0" height="52.0" class="ghost"/>
<rect rx="6.0" ry="6.0" x="144.0" y="1458.0" width="52.0" height="52.0" class="ghost"/>
<rect rx="6.0" ry="6.0" x="200.0" y="1473.68" width="52.0" height="52.0" class=""/>
<text x="226.0" y="1499.68" class="tap">
<tspan x="226.0" dy="-0.6em">PROFIL</tspan><tspan x="226.0" dy="1.2em">5</tspan></text>
<rect rx="6.0" ry="6.0" x="256.0" y="1481.52" width="52.0" height="52.0" class=""/>
<text x="282.0" y="1507.52" class="tap">
<tspan x="282.0" dy="-0.6em">PROFIL</tspan><tspan x="282.0" dy="1.2em">2</tspan></text>
<rect rx="6.0" ry="6.0" x="424.0" y="1481.52" width="52.0" height="52.0" class="ghost"/>
<rect rx="6.0" ry="6.0" x="480.0" y="1473.68" width="52.0" height="52.0" class="ghost"/>
<rect rx="6.0" ry="6.0" x="536.0" y="1458.0" width="52.0" height="52.0" class="ghost"/>
<rect rx="6.0" ry="6.0" x="592.0" y="1475.36" width="52.0" height="52.0" class="ghost"/>
<rect rx="6.0" ry="6.0" x="648.0" y="1510.08" width="52.0" height="52.0" class=""/>
<text x="674.0" y="1536.08" class="tap">BTLDR</text>
<rect rx="6.0" ry="6.0" x="32.0" y="1566.08" width="52.0" height="52.0" class="ghost"/>
<rect rx="6.0" ry="6.0" x="88.0" y="1531.3600000000001" width="52.0" height="52.0" class="held"/>
<rect rx="6.0" ry="6.0" x="144.0" y="1514.0" width="52.0" height="52.0" class="held"/>
<rect rx="6.0" ry="6.0" x="200.0" y="1529.68" width="52.0" height="52.0" class=""/>
<text x="226.0" y="1555.68" class="tap">
<tspan x="226.0" dy="-0.6em">BT</tspan><tspan x="226.0" dy="1.2em">CLR</tspan></text>
<rect rx="6.0" ry="6.0" x="256.0" y="1537.52" width="52.0" height="52.0" class=""/>
<text x="282.0" y="1563.52" class="tap">
<tspan x="282.0" dy="-0.6em">PROFIL</tspan><tspan x="282.0" dy="1.2em">3</tspan></text>
<rect rx="6.0" ry="6.0" x="424.0" y="1537.52" width="52.0" height="52.0" class="ghost"/>
<rect rx="6.0" ry="6.0" x="480.0" y="1529.68" width="52.0" height="52.0" class="ghost"/>
<rect rx="6.0" ry="6.0" x="536.0" y="1514.0" width="52.0" height="52.0" class="ghost"/>
<rect rx="6.0" ry="6.0" x="592.0" y="1531.3600000000001" width="52.0" height="52.0" class="ghost"/>
<rect rx="6.0" ry="6.0" x="648.0" y="1566.08" width="52.0" height="52.0" class="ghost"/>
<rect rx="6.0" ry="6.0" x="228.0" y="1612.0" width="52.0" height="52.0" class="held"/>
<rect rx="6.0" ry="6.0" x="284.0" y="1626.0" width="52.0" height="52.0" class="ghost"/>
<rect rx="6.0" ry="6.0" x="396.0" y="1626.0" width="52.0" height="52.0" class="ghost"/>
<rect rx="6.0" ry="6.0" x="452.0" y="1612.0" width="52.0" height="52.0" class="ghost"/>
</g>
</svg>
