<svg width="732.0" height="1724.8" viewBox="0 0 732.0 1724.8" class="keymap" xmlns="http://www.w3.org/2000/svg">
<defs>/* start glyphs */
</defs>/* end glyphs */
<style>/* inherit to force styles through use tags*/
svg path {
    fill: inherit;
}
/* font and background color specifications */
svg.keymap {
    font-family: SFMono-Regular,Consolas,Liberation Mono,Menlo,monospace;
    font-size: 14px;
    font-kerning: normal;
    text-rendering: optimizeLegibility;
    fill: #24292e;
}

/* default key styling */
rect.key {
    fill: #f6f8fa;
    stroke: #c9cccf;
    stroke-width: 1;
}

/* color accent for combo boxes */
rect.combo {
    fill: #cdf;
}

/* color accent for held keys */
rect.held, rect.combo.held {
    fill: #fdd;
}

/* color accent for ghost (optional) keys */
rect.ghost, rect.combo.ghost {
    fill: #ddd;
}

text {
    text-anchor: middle;
    dominant-baseline: middle;
}

/* styling for layer labels */
text.label {
    font-weight: bold;
    text-anchor: start;
    stroke: white;
    stroke-width: 2;
    paint-order: stroke;
}

/* styling for combo tap, and key hold/shifted label text */
text.combo, text.hold, text.shifted {
    font-size: 11px;
}

text.hold {
    text-anchor: middle;
    dominant-baseline: auto;
}

text.shifted {
    text-anchor: middle;
    dominant-baseline: hanging;
}

/* styling for hold/shifted label text in combo box */
text.combo.hold, text.combo.shifted {
    font-size: 8px;
}

/* styling for combo dendrons */
path.combo {
    stroke-width: 1;
    stroke: gray;
    fill: none;
}

/* Start Tabler Icons Cleanup */
/* cannot use height/width with glyphs */
.icon-tabler > path {
    fill: inherit;
    stroke: inherit;
}
/* hide tabler's default box */
.icon-tabler > path[stroke="none"][fill="none"] {
    visibility: collapse;
}
/* End Tabler Icons Cleanup */
</style>
<g class="layer-BASE">
<text x="30.0" y="28.0" class="label">BASE:</text>
<rect rx="6.0" ry="6.0" x="32.0" y="110.08000000000001" width="52.0" height="52.0" class="key"/>
<text x="58.0" y="136.08" class="tap">A</text>
<rect rx="6.0" ry="6.0" x="88.0" y="75.36" width="52.0" height="52.0" class="key"/>
<text x="114.0" y="101.36" class="tap">Z</text>
<rect rx="6.0" ry="6.0" x="144.0" y="58.0" width="52.0" height="52.0" class="key"/>
<text x="170.0" y="84.0" class="tap">E</text>
<rect rx="6.0" ry="6.0" x="200.0" y="73.68" width="52.0" height="52.0" class="key"/>
<text x="226.0" y="99.68" class="tap">R</text>
<rect rx="6.0" ry="6.0" x="256.0" y="81.52" width="52.0" height="52.0" class="key"/>
<text x="282.0" y="107.52" class="tap">T</text>
<rect rx="6.0" ry="6.0" x="424.0" y="81.52" width="52.0" height="52.0" class="key"/>
<text x="450.0" y="107.52" class="tap">Y</text>
<rect rx="6.0" ry="6.0" x="480.0" y="73.68" width="52.0" height="52.0" class="key"/>
<text x="506.0" y="99.68" class="tap">U</text>
<rect rx="6.0" ry="6.0" x="536.0" y="58.0" width="52.0" height="52.0" class="key"/>
<text x="562.0" y="84.0" class="tap">I</text>
<rect rx="6.0" ry="6.0" x="592.0" y="75.36" width="52.0" height="52.0" class="key"/>
<text x="618.0" y="101.36" class="tap">O</text>
<rect rx="6.0" ry="6.0" x="648.0" y="110.08000000000001" width="52.0" height="52.0" class="key"/>
<text x="674.0" y="136.08" class="tap">P</text>
<rect rx="6.0" ry="6.0" x="32.0" y="166.07999999999998" width="52.0" height="52.0" class="key"/>
<text x="58.0" y="192.07999999999998" class="tap">Q</text>
<text x="58.0" y="216.07999999999998" class="hold">WIN</text>
<rect rx="6.0" ry="6.0" x="88.0" y="131.36" width="52.0" height="52.0" class="key"/>
<text x="114.0" y="157.36" class="tap">S</text>
<text x="114.0" y="181.36" class="hold">ALT</text>
<rect rx="6.0" ry="6.0" x="144.0" y="114.0" width="52.0" height="52.0" class="key"/>
<text x="170.0" y="140.0" class="tap">D</text>
<text x="170.0" y="164.0" class="hold">LCTRL</text>
<rect rx="6.0" ry="6.0" x="200.0" y="129.68" width="52.0" height="52.0" class="key"/>
<text x="226.0" y="155.68" class="tap">F</text>
<text x="226.0" y="179.68" class="hold">LSHFT</text>
<rect rx="6.0" ry="6.0" x="256.0" y="137.51999999999998" width="52.0" height="52.0" class="key"/>
<text x="282.0" y="163.51999999999998" class="tap">G</text>
<text x="282.0" y="187.51999999999998" class="hold">ALTGR</text>
<rect rx="6.0" ry="6.0" x="424.0" y="137.51999999999998" width="52.0" height="52.0" class="key"/>
<text x="450.0" y="163.51999999999998" class="tap">H</text>
<text x="450.0" y="187.51999999999998" class="hold">ALTGR</text>
<rect rx="6.0" ry="6.0" x="480.0" y="129.68" width="52.0" height="52.0" class="key"/>
<text x="506.0" y="155.68" class="tap">J</text>
<text x="506.0" y="179.68" class="hold">RSHFT</text>
<rect rx="6.0" ry="6.0" x="536.0" y="114.0" width="52.0" height="52.0" class="key"/>
<text x="562.0" y="140.0" class="tap">K</text>
<text x="562.0" y="164.0" class="hold">RCTRL</text>
<rect rx="6.0" ry="6.0" x="592.0" y="131.36" width="52.0" height="52.0" class="key"/>
<text x="618.0" y="157.36" class="tap">L</text>
<text x="618.0" y="181.36" class="hold">ALT</text>
<rect rx="6.0" ry="6.0" x="648.0" y="166.07999999999998" width="52.0" height="52.0" class="key"/>
<text x="674.0" y="192.07999999999998" class="tap">M</text>
<text x="674.0" y="216.07999999999998" class="hold">WIN</text>
<rect rx="6.0" ry="6.0" x="32.0" y="222.08" width="52.0" height="52.0" class="key"/>
<text x="58.0" y="248.08" class="tap">Z</text>
<rect rx="6.0" ry="6.0" x="88.0" y="187.36" width="52.0" height="52.0" class="key"/>
<text x="114.0" y="213.36" class="tap">X</text>
<rect rx="6.0" ry="6.0" x="144.0" y="170.0" width="52.0" height="52.0" class="key"/>
<text x="170.0" y="196.0" class="tap">C</text>
<rect rx="6.0" ry="6.0" x="200.0" y="185.67999999999998" width="52.0" height="52.0" class="key"/>
<text x="226.0" y="211.67999999999998" class="tap">V</text>
<rect rx="6.0" ry="6.0" x="256.0" y="193.51999999999998" width="52.0" height="52.0" class="key"/>
<text x="282.0" y="219.51999999999998" class="tap">B</text>
<rect rx="6.0" ry="6.0" x="424.0" y="193.51999999999998" width="52.0" height="52.0" class="key"/>
<text x="450.0" y="219.51999999999998" class="tap">N</text>
<rect rx="6.0" ry="6.0" x="480.0" y="185.67999999999998" width="52.0" height="52.0" class="key"/>
<text x="506.0" y="211.67999999999998" class="tap">,</text>
<text x="506.0" y="187.67999999999998" class="shifted">?</text>
<rect rx="6.0" ry="6.0" x="536.0" y="170.0" width="52.0" height="52.0" class="key"/>
<text x="562.0" y="196.0" class="tap">;</text>
<text x="562.0" y="172.0" class="shifted">.</text>
<rect rx="6.0" ry="6.0" x="592.0" y="187.36" width="52.0" height="52.0" class="key"/>
<text x="618.0" y="213.36" class="tap">:</text>
<text x="618.0" y="189.36" class="shifted">/</text>
<rect rx="6.0" ry="6.0" x="648.0" y="222.08" width="52.0" height="52.0" class="key"/>
<text x="674.0" y="248.08" class="tap">!</text>
<text x="674.0" y="224.08" class="shifted">§</text>
<rect rx="6.0" ry="6.0" x="228.0" y="268.0" width="52.0" height="52.0" class="key"/>
<text x="254.0" y="294.0" class="tap">TAB</text>
<text x="254.0" y="318.0" class="hold">SYMNUM</text>
<rect rx="6.0" ry="6.0" x="284.0" y="282.0" width="52.0" height="52.0" class="key"/>
<text x="310.0" y="308.0" class="tap">SPACE</text>
<rect rx="6.0" ry="6.0" x="396.0" y="282.0" width="52.0" height="52.0" class="key"/>
<text x="422.0" y="308.0" class="tap">ENTER</text>
<rect rx="6.0" ry="6.0" x="452.0" y="268.0" width="52.0" height="52.0" class="key"/>
<text x="478.0" y="294.0" class="tap">BKSPC</text>
<text x="478.0" y="318.0" class="hold">ACCNAV</text>
<rect rx="6.0" ry="6.0" x="74.0" y="106.72" width="24" height="24" class="combo"/>
<text x="86.0" y="118.72" class="combo tap">ESC</text>
</g>
<g class="layer-SYMNUM">
<text x="30.0" y="364.0" class="label">SYMNUM:</text>
<rect rx="6.0" ry="6.0" x="32.0" y="446.08000000000004" width="52.0" height="52.0" class="key"/>
<text x="58.0" y="472.08000000000004" class="tap">`</text>
<rect rx="6.0" ry="6.0" x="88.0" y="411.36" width="52.0" height="52.0" class="key"/>
<text x="114.0" y="437.36" class="tap">&quot;</text>
<rect rx="6.0" ry="6.0" x="144.0" y="394.0" width="52.0" height="52.0" class="key"/>
<text x="170.0" y="420.0" class="tap">&#x27;</text>
<rect rx="6.0" ry="6.0" x="200.0" y="409.68" width="52.0" height="52.0" class="key"/>
<text x="226.0" y="435.68" class="tap">_</text>
<rect rx="6.0" ry="6.0" x="256.0" y="417.52" width="52.0" height="52.0" class="key"/>
<text x="282.0" y="443.52" class="tap">|</text>
<rect rx="6.0" ry="6.0" x="424.0" y="417.52" width="52.0" height="52.0" class="key"/>
<text x="450.0" y="443.52" class="tap">*</text>
<rect rx="6.0" ry="6.0" x="480.0" y="409.68" width="52.0" height="52.0" class="key"/>
<text x="506.0" y="435.68" class="tap">7</text>
<rect rx="6.0" ry="6.0" x="536.0" y="394.0" width="52.0" height="52.0" class="key"/>
<text x="562.0" y="420.0" class="tap">8</text>
<rect rx="6.0" ry="6.0" x="592.0" y="411.36" width="52.0" height="52.0" class="key"/>
<text x="618.0" y="437.36" class="tap">9</text>
<rect rx="6.0" ry="6.0" x="648.0" y="446.08000000000004" width="52.0" height="52.0" class="key"/>
<text x="674.0" y="472.08000000000004" class="tap">/</text>
<rect rx="6.0" ry="6.0" x="32.0" y="502.0799999999999" width="52.0" height="52.0" class="key"/>
<text x="58.0" y="528.0799999999999" class="tap">&lt;</text>
<text x="58.0" y="552.0799999999999" class="hold">WIN</text>
<rect rx="6.0" ry="6.0" x="88.0" y="467.36" width="52.0" height="52.0" class="key"/>
<text x="114.0" y="493.36" class="tap">[</text>
<text x="114.0" y="517.36" class="hold">ALT</text>
<rect rx="6.0" ry="6.0" x="144.0" y="450.0" width="52.0" height="52.0" class="key"/>
<text x="170.0" y="476.0" class="tap">{</text>
<text x="170.0" y="500.0" class="hold">LCTRL</text>
<rect rx="6.0" ry="6.0" x="200.0" y="465.68" width="52.0" height="52.0" class="key"/>
<text x="226.0" y="491.68" class="tap">(</text>
<text x="226.0" y="515.6800000000001" class="hold">LSHFT</text>
<rect rx="6.0" ry="6.0" x="256.0" y="473.52" width="52.0" height="52.0" class="key"/>
<text x="282.0" y="499.52" class="tap">&amp;</text>
<text x="282.0" y="523.52" class="hold">ALTGR</text>
<rect rx="6.0" ry="6.0" x="424.0" y="473.52" width="52.0" height="52.0" class="key"/>
<text x="450.0" y="499.52" class="tap">+</text>
<text x="450.0" y="523.52" class="hold">ALTGR</text>
<rect rx="6.0" ry="6.0" x="480.0" y="465.68" width="52.0" height="52.0" class="key"/>
<text x="506.0" y="491.68" class="tap">4</text>
<text x="506.0" y="515.6800000000001" class="hold">RSHFT</text>
<rect rx="6.0" ry="6.0" x="536.0" y="450.0" width="52.0" height="52.0" class="key"/>
<text x="562.0" y="476.0" class="tap">5</text>
<text x="562.0" y="500.0" class="hold">RCTRL</text>
<rect rx="6.0" ry="6.0" x="592.0" y="467.36" width="52.0" height="52.0" class="key"/>
<text x="618.0" y="493.36" class="tap">6</text>
<text x="618.0" y="517.36" class="hold">ALT</text>
<rect rx="6.0" ry="6.0" x="648.0" y="502.0799999999999" width="52.0" height="52.0" class="key"/>
<text x="674.0" y="528.0799999999999" class="tap">-</text>
<text x="674.0" y="552.0799999999999" class="hold">WIN</text>
<rect rx="6.0" ry="6.0" x="32.0" y="558.08" width="52.0" height="52.0" class="key"/>
<text x="58.0" y="584.08" class="tap">&gt;</text>
<rect rx="6.0" ry="6.0" x="88.0" y="523.36" width="52.0" height="52.0" class="key"/>
<text x="114.0" y="549.36" class="tap">]</text>
<rect rx="6.0" ry="6.0" x="144.0" y="506.0" width="52.0" height="52.0" class="key"/>
<text x="170.0" y="532.0" class="tap">}</text>
<rect rx="6.0" ry="6.0" x="200.0" y="521.68" width="52.0" height="52.0" class="key"/>
<text x="226.0" y="547.68" class="tap">)</text>
<rect rx="6.0" ry="6.0" x="256.0" y="529.52" width="52.0" height="52.0" class="key"/>
<text x="282.0" y="555.52" class="tap">=</text>
<rect rx="6.0" ry="6.0" x="424.0" y="529.52" width="52.0" height="52.0" class="key"/>
<text x="450.0" y="555.52" class="tap">0</text>
<rect rx="6.0" ry="6.0" x="480.0" y="521.68" width="52.0" height="52.0" class="key"/>
<text x="506.0" y="547.68" class="tap">1</text>
<rect rx="6.0" ry="6.0" x="536.0" y="506.0" width="52.0" height="52.0" class="key"/>
<text x="562.0" y="532.0" class="tap">2</text>
<rect rx="6.0" ry="6.0" x="592.0" y="523.36" width="52.0" height="52.0" class="key"/>
<text x="618.0" y="549.36" class="tap">3</text>
<rect rx="6.0" ry="6.0" x="648.0" y="558.08" width="52.0" height="52.0" class="key"/>
<text x="674.0" y="584.08" class="tap">.</text>
<rect rx="6.0" ry="6.0" x="228.0" y="604.0" width="52.0" height="52.0" class="held key"/>
<rect rx="6.0" ry="6.0" x="284.0" y="618.0" width="52.0" height="52.0" class="key"/>
<text x="310.0" y="644.0" class="tap">SPACE</text>
<rect rx="6.0" ry="6.0" x="396.0" y="618.0" width="52.0" height="52.0" class="key"/>
<text x="422.0" y="644.0" class="tap">ENTER</text>
<rect rx="6.0" ry="6.0" x="452.0" y="604.0" width="52.0" height="52.0" class="key"/>
<text x="478.0" y="630.0" class="tap">BKSPC</text>
<text x="478.0" y="654.0" class="hold">FUNCTIONS</text>
<rect rx="6.0" ry="6.0" x="74.0" y="442.72" width="24" height="24" class="combo"/>
<text x="86.0" y="454.72" class="combo tap">ESC</text>
<rect rx="6.0" ry="6.0" x="522.0" y="415.84000000000003" width="24" height="24" class="combo"/>
<text x="534.0" y="427.84000000000003" class="combo tap">NUMLOCK</text>
<rect rx="6.0" ry="6.0" x="522.0" y="471.84000000000003" width="24" height="24" class="combo"/>
<text x="534.0" y="483.84000000000003" class="combo tap">ENTER</text>
<rect rx="6.0" ry="6.0" x="46.0" y="488.08" width="24" height="24" class="combo"/>
<text x="58.0" y="500.08" class="combo tap">%</text>
<rect rx="6.0" ry="6.0" x="102.0" y="453.36" width="24" height="24" class="combo"/>
<text x="114.0" y="465.36" class="combo tap">$</text>
<rect rx="6.0" ry="6.0" x="158.0" y="436.0" width="24" height="24" class="combo"/>
<text x="170.0" y="448.0" class="combo tap">£</text>
<rect rx="6.0" ry="6.0" x="214.0" y="451.68" width="24" height="24" class="combo"/>
<text x="226.0" y="463.68" class="combo tap">€</text>
<path d="M170.0,391.0 h-36.800000000000004 a8,8 0 0 0 -8.0,8.0 v19.693333333333346" class="combo"/>
<path d="M170.0,391.0 l0.0,17.8" class="combo"/>
<path d="M170.0,391.0 h36.800000000000004 a8,8 0 0 1 8.0,8.0 v18.01333333333334" class="combo"/>
<rect rx="6.0" ry="6.0" x="158.0" y="379.0" width="24" height="24" class="combo"/>
<text x="170.0" y="391.0" class="combo tap">¤</text>
<rect rx="6.0" ry="6.0" x="270.0" y="459.52" width="24" height="24" class="combo"/>
<text x="282.0" y="471.52" class="combo tap">Ø</text>
<path d="M87.0,556.0799999999999 v-14.400000000000002 a8,8 0 0 0 -8.0,-8.0 h-2.333333333333332" class="combo"/>
<path d="M87.0,556.0799999999999 v14.400000000000091 a8,8 0 0 1 -8.0,8.0 h-2.333333333333332" class="combo"/>
<rect rx="6.0" ry="6.0" x="75.0" y="544.0799999999999" width="24" height="24" class="combo"/>
<text x="87.0" y="556.0799999999999" class="combo tap">^</text>
<path d="M143.0,521.36 v-14.400000000000002 a8,8 0 0 0 -8.0,-8.0 h-2.333333333333332" class="combo"/>
<path d="M143.0,521.36 v14.400000000000002 a8,8 0 0 1 -8.0,8.0 h-2.333333333333332" class="combo"/>
<rect rx="6.0" ry="6.0" x="131.0" y="509.36" width="24" height="24" class="combo"/>
<text x="143.0" y="521.36" class="combo tap">\</text>
<path d="M199.0,504.0 v-14.400000000000002 a8,8 0 0 0 -8.0,-8.0 h-2.333333333333332" class="combo"/>
<path d="M199.0,504.0 v14.400000000000002 a8,8 0 0 1 -8.0,8.0 h-2.333333333333332" class="combo"/>
<rect rx="6.0" ry="6.0" x="187.0" y="492.0" width="24" height="24" class="combo"/>
<text x="199.0" y="504.0" class="combo tap">~</text>
<path d="M255.0,519.68 v-14.399999999999956 a8,8 0 0 0 -8.0,-8.0 h-2.333333333333332" class="combo"/>
<path d="M255.0,519.68 v14.400000000000002 a8,8 0 0 1 -8.0,8.0 h-2.333333333333332" class="combo"/>
<rect rx="6.0" ry="6.0" x="243.0" y="507.67999999999995" width="24" height="24" class="combo"/>
<text x="255.0" y="519.68" class="combo tap">@</text>
<path d="M311.0,527.52 v-14.400000000000002 a8,8 0 0 0 -8.0,-8.0 h-2.333333333333332" class="combo"/>
<path d="M311.0,527.52 v14.400000000000002 a8,8 0 0 1 -8.0,8.0 h-2.333333333333332" class="combo"/>
<rect rx="6.0" ry="6.0" x="299.0" y="515.52" width="24" height="24" class="combo"/>
<text x="311.0" y="527.52" class="combo tap">#</text>
</g>
<g class="layer-ACCNAV">
<text x="30.0" y="700.0" class="label">ACCNAV:</text>
<rect rx="6.0" ry="6.0" x="32.0" y="776.48" width="52.0" height="52.0" class="key"/>
<text x="58.0" y="802.48" class="tap">À</text>
<rect rx="6.0" ry="6.0" x="88.0" y="741.76" width="52.0" height="52.0" class="key"/>
<text x="114.0" y="767.76" class="tap">É</text>
<rect rx="6.0" ry="6.0" x="144.0" y="724.4" width="52.0" height="52.0" class="key"/>
<text x="170.0" y="750.4" class="tap">È</text>
<rect rx="6.0" ry="6.0" x="200.0" y="740.0799999999999" width="52.0" height="52.0" class="key"/>
<text x="226.0" y="766.0799999999999" class="tap">Ù</text>
<rect rx="6.0" ry="6.0" x="256.0" y="747.92" width="52.0" height="52.0" class="key"/>
<text x="282.0" y="773.92" class="tap">Ç</text>
<rect rx="6.0" ry="6.0" x="424.0" y="747.92" width="52.0" height="52.0" class="key"/>
<text x="450.0" y="773.92" class="tap">
<tspan x="450.0" dy="-0.6em">PAGE</tspan><tspan x="450.0" dy="1.2em">UP</tspan></text>
<rect rx="6.0" ry="6.0" x="480.0" y="740.0799999999999" width="52.0" height="52.0" class="key"/>
<text x="506.0" y="766.0799999999999" class="tap">HOME</text>
<rect rx="6.0" ry="6.0" x="536.0" y="724.4" width="52.0" height="52.0" class="key"/>
<text x="562.0" y="750.4" class="tap">UP</text>
<rect rx="6.0" ry="6.0" x="592.0" y="741.76" width="52.0" height="52.0" class="key"/>
<text x="618.0" y="767.76" class="tap">END</text>
<rect rx="6.0" ry="6.0" x="648.0" y="776.48" width="52.0" height="52.0" class="key"/>
<text x="674.0" y="802.48" class="tap">ESCAPE</text>
<rect rx="6.0" ry="6.0" x="32.0" y="832.48" width="52.0" height="52.0" class="key"/>
<text x="58.0" y="858.48" class="tap">à</text>
<text x="58.0" y="882.48" class="hold">WIN</text>
<rect rx="6.0" ry="6.0" x="88.0" y="797.76" width="52.0" height="52.0" class="key"/>
<text x="114.0" y="823.76" class="tap">é</text>
<text x="114.0" y="847.76" class="hold">ALT</text>
<rect rx="6.0" ry="6.0" x="144.0" y="780.4" width="52.0" height="52.0" class="key"/>
<text x="170.0" y="806.4" class="tap">è</text>
<text x="170.0" y="830.4" class="hold">LCTRL</text>
<rect rx="6.0" ry="6.0" x="200.0" y="796.0799999999999" width="52.0" height="52.0" class="key"/>
<text x="226.0" y="822.0799999999999" class="tap">ù</text>
<text x="226.0" y="846.0799999999999" class="hold">LSHFT</text>
<rect rx="6.0" ry="6.0" x="256.0" y="803.92" width="52.0" height="52.0" class="key"/>
<text x="282.0" y="829.92" class="tap">ç</text>
<text x="282.0" y="853.92" class="hold">ALTGR</text>
<rect rx="6.0" ry="6.0" x="424.0" y="803.92" width="52.0" height="52.0" class="key"/>
<text x="450.0" y="829.92" class="tap">
<tspan x="450.0" dy="-0.6em">PAGE</tspan><tspan x="450.0" dy="1.2em">DOWN</tspan></text>
<rect rx="6.0" ry="6.0" x="480.0" y="796.0799999999999" width="52.0" height="52.0" class="key"/>
<text x="506.0" y="822.0799999999999" class="tap">LEFT</text>
<rect rx="6.0" ry="6.0" x="536.0" y="780.4" width="52.0" height="52.0" class="key"/>
<text x="562.0" y="806.4" class="tap">DOWN</text>
<rect rx="6.0" ry="6.0" x="592.0" y="797.76" width="52.0" height="52.0" class="key"/>
<text x="618.0" y="823.76" class="tap">RIGHT</text>
<rect rx="6.0" ry="6.0" x="648.0" y="832.48" width="52.0" height="52.0" class="key"/>
<text x="674.0" y="858.48" class="tap">
<tspan x="674.0" dy="-0.6em">CONTEXT</tspan><tspan x="674.0" dy="1.2em">MENU</tspan></text>
<rect rx="6.0" ry="6.0" x="32.0" y="888.48" width="52.0" height="52.0" class="key"/>
<text x="58.0" y="914.48" class="tap">²</text>
<rect rx="6.0" ry="6.0" x="88.0" y="853.76" width="52.0" height="52.0" class="key"/>
<text x="114.0" y="879.76" class="tap">ë</text>
<text x="114.0" y="903.76" class="hold">Ë</text>
<rect rx="6.0" ry="6.0" x="144.0" y="836.4" width="52.0" height="52.0" class="key"/>
<text x="170.0" y="862.4" class="tap">ï</text>
<text x="170.0" y="886.4" class="hold">Ï</text>
<rect rx="6.0" ry="6.0" x="200.0" y="852.0799999999999" width="52.0" height="52.0" class="key"/>
<text x="226.0" y="878.0799999999999" class="tap">ü</text>
<text x="226.0" y="902.0799999999999" class="hold">Ü</text>
<rect rx="6.0" ry="6.0" x="256.0" y="859.92" width="52.0" height="52.0" class="key"/>
<text x="282.0" y="885.92" class="tap">^</text>
<text x="282.0" y="861.92" class="shifted">¨</text>
<rect rx="6.0" ry="6.0" x="424.0" y="859.92" width="52.0" height="52.0" class="key"/>
<text x="450.0" y="885.92" class="tap">
<tspan x="450.0" dy="-1.2em">CTRL</tspan><tspan x="450.0" dy="1.2em">+</tspan><tspan x="450.0" dy="1.2em">BSPC</tspan></text>
<rect rx="6.0" ry="6.0" x="480.0" y="852.0799999999999" width="52.0" height="52.0" class="key"/>
<text x="506.0" y="878.0799999999999" class="tap">BSPC</text>
<rect rx="6.0" ry="6.0" x="536.0" y="836.4" width="52.0" height="52.0" class="key"/>
<text x="562.0" y="862.4" class="tap">INSERT</text>
<rect rx="6.0" ry="6.0" x="592.0" y="853.76" width="52.0" height="52.0" class="key"/>
<text x="618.0" y="879.76" class="tap">DELETE</text>
<rect rx="6.0" ry="6.0" x="648.0" y="888.48" width="52.0" height="52.0" class="key"/>
<text x="674.0" y="914.48" class="tap">
<tspan x="674.0" dy="-1.2em">CTRL</tspan><tspan x="674.0" dy="1.2em">+</tspan><tspan x="674.0" dy="1.2em">DELETE</tspan></text>
<rect rx="6.0" ry="6.0" x="228.0" y="934.4" width="52.0" height="52.0" class="key"/>
<text x="254.0" y="960.4" class="tap">TAB</text>
<text x="254.0" y="984.4" class="hold">FUNCTIONS</text>
<rect rx="6.0" ry="6.0" x="284.0" y="948.4" width="52.0" height="52.0" class="key"/>
<text x="310.0" y="974.4" class="tap">SPACE</text>
<rect rx="6.0" ry="6.0" x="396.0" y="948.4" width="52.0" height="52.0" class="key"/>
<text x="422.0" y="974.4" class="tap">ENTER</text>
<rect rx="6.0" ry="6.0" x="452.0" y="934.4" width="52.0" height="52.0" class="held key"/>
<rect rx="6.0" ry="6.0" x="74.0" y="773.12" width="24" height="24" class="combo"/>
<text x="86.0" y="785.12" class="combo tap">ESC</text>
<rect rx="6.0" ry="6.0" x="130.0" y="747.0799999999999" width="24" height="24" class="combo"/>
<text x="142.0" y="759.0799999999999" class="combo tap">Ê</text>
<rect rx="6.0" ry="6.0" x="130.0" y="803.0799999999999" width="24" height="24" class="combo"/>
<text x="142.0" y="815.0799999999999" class="combo tap">ê</text>
<rect rx="6.0" ry="6.0" x="46.0" y="823.0799999999999" width="24" height="24" class="ghost"/>
<text x="58.0" y="835.0799999999999" class="ghost tap">@</text>
<rect rx="6.0" ry="6.0" x="102.0" y="788.36" width="24" height="24" class="ghost"/>
<text x="114.0" y="800.36" class="ghost tap">~</text>
<rect rx="6.0" ry="6.0" x="158.0" y="771.0" width="24" height="24" class="ghost"/>
<text x="170.0" y="783.0" class="ghost tap">`</text>
<rect rx="6.0" ry="6.0" x="102.0" y="891.16" width="24" height="24" class="held"/>
<text x="114.0" y="903.16" class="held tap">Ë</text>
<rect rx="6.0" ry="6.0" x="158.0" y="873.8" width="24" height="24" class="held"/>
<text x="170.0" y="885.8" class="held tap">Ï</text>
<rect rx="6.0" ry="6.0" x="214.0" y="889.48" width="24" height="24" class="held"/>
<text x="226.0" y="901.48" class="held tap">Ü</text>
</g>
<g class="layer-FUNCTIONS">
<text x="30.0" y="1024.8" class="label">FUNCTIONS:</text>
<rect rx="6.0" ry="6.0" x="32.0" y="1106.8799999999999" width="52.0" height="52.0" class="key"/>
<text x="58.0" y="1132.8799999999999" class="tap">ESCAPE</text>
<rect rx="6.0" ry="6.0" x="88.0" y="1072.1599999999999" width="52.0" height="52.0" class="key"/>
<text x="114.0" y="1098.1599999999999" class="tap">PSCRN</text>
<rect rx="6.0" ry="6.0" x="144.0" y="1054.8" width="52.0" height="52.0" class="key"/>
<text x="170.0" y="1080.8" class="tap">SLCK</text>
<rect rx="6.0" ry="6.0" x="200.0" y="1070.48" width="52.0" height="52.0" class="key"/>
<text x="226.0" y="1096.48" class="tap">PAUSE</text>
<rect rx="6.0" ry="6.0" x="256.0" y="1078.32" width="52.0" height="52.0" class="key"/>
<text x="282.0" y="1104.32" class="tap">
<tspan x="282.0" dy="-0.6em">BRI</tspan><tspan x="282.0" dy="1.2em">UP</tspan></text>
<rect rx="6.0" ry="6.0" x="424.0" y="1078.32" width="52.0" height="52.0" class="key"/>
<text x="450.0" y="1104.32" class="tap">
<tspan x="450.0" dy="-0.6em">VOL</tspan><tspan x="450.0" dy="1.2em">UP</tspan></text>
<rect rx="6.0" ry="6.0" x="480.0" y="1070.48" width="52.0" height="52.0" class="key"/>
<text x="506.0" y="1096.48" class="tap">F9</text>
<rect rx="6.0" ry="6.0" x="536.0" y="1054.8" width="52.0" height="52.0" class="key"/>
<text x="562.0" y="1080.8" class="tap">F10</text>
<rect rx="6.0" ry="6.0" x="592.0" y="1072.1599999999999" width="52.0" height="52.0" class="key"/>
<text x="618.0" y="1098.1599999999999" class="tap">F11</text>
<rect rx="6.0" ry="6.0" x="648.0" y="1106.8799999999999" width="52.0" height="52.0" class="key"/>
<text x="674.0" y="1132.8799999999999" class="tap">F12</text>
<rect rx="6.0" ry="6.0" x="32.0" y="1162.8799999999999" width="52.0" height="52.0" class="key"/>
<text x="58.0" y="1188.8799999999999" class="tap">TAB</text>
<text x="58.0" y="1212.8799999999999" class="hold">WIN</text>
<rect rx="6.0" ry="6.0" x="88.0" y="1128.1599999999999" width="52.0" height="52.0" class="key"/>
<text x="114.0" y="1154.1599999999999" class="tap">PREVIOUS</text>
<text x="114.0" y="1178.1599999999999" class="hold">ALT</text>
<rect rx="6.0" ry="6.0" x="144.0" y="1110.8" width="52.0" height="52.0" class="key"/>
<text x="170.0" y="1136.8" class="tap">
<tspan x="170.0" dy="-1.2em">PLAY</tspan><tspan x="170.0" dy="1.2em">PAUSE</tspan></text>
<text x="170.0" y="1160.8" class="hold">LCTRL</text>
<rect rx="6.0" ry="6.0" x="200.0" y="1126.48" width="52.0" height="52.0" class="key"/>
<text x="226.0" y="1152.48" class="tap">NEXT</text>
<text x="226.0" y="1176.48" class="hold">LSHFT</text>
<rect rx="6.0" ry="6.0" x="256.0" y="1134.32" width="52.0" height="52.0" class="key"/>
<text x="282.0" y="1160.32" class="tap">C+A+S</text>
<text x="282.0" y="1184.32" class="hold">ALTGR</text>
<rect rx="6.0" ry="6.0" x="424.0" y="1134.32" width="52.0" height="52.0" class="key"/>
<text x="450.0" y="1160.32" class="tap">MUTE</text>
<rect rx="6.0" ry="6.0" x="480.0" y="1126.48" width="52.0" height="52.0" class="key"/>
<text x="506.0" y="1152.48" class="tap">F5</text>
<rect rx="6.0" ry="6.0" x="536.0" y="1110.8" width="52.0" height="52.0" class="key"/>
<text x="562.0" y="1136.8" class="tap">F6</text>
<rect rx="6.0" ry="6.0" x="592.0" y="1128.1599999999999" width="52.0" height="52.0" class="key"/>
<text x="618.0" y="1154.1599999999999" class="tap">F7</text>
<rect rx="6.0" ry="6.0" x="648.0" y="1162.8799999999999" width="52.0" height="52.0" class="key"/>
<text x="674.0" y="1188.8799999999999" class="tap">F8</text>
<rect rx="6.0" ry="6.0" x="32.0" y="1218.8799999999999" width="52.0" height="52.0" class="key"/>
<text x="58.0" y="1244.8799999999999" class="tap">
<tspan x="58.0" dy="-0.6em">CAPS</tspan><tspan x="58.0" dy="1.2em">LOCK</tspan></text>
<rect rx="6.0" ry="6.0" x="88.0" y="1184.1599999999999" width="52.0" height="52.0" class="key"/>
<text x="114.0" y="1210.1599999999999" class="tap">REWIND</text>
<rect rx="6.0" ry="6.0" x="144.0" y="1166.8" width="52.0" height="52.0" class="key"/>
<text x="170.0" y="1192.8" class="tap">
<tspan x="170.0" dy="-0.6em">WIN</tspan><tspan x="170.0" dy="1.2em">LOCK</tspan></text>
<rect rx="6.0" ry="6.0" x="200.0" y="1182.48" width="52.0" height="52.0" class="key"/>
<text x="226.0" y="1208.48" class="tap">FFORWARD</text>
<rect rx="6.0" ry="6.0" x="256.0" y="1190.32" width="52.0" height="52.0" class="key"/>
<text x="282.0" y="1216.32" class="tap">
<tspan x="282.0" dy="-0.6em">BRI</tspan><tspan x="282.0" dy="1.2em">DOWN</tspan></text>
<rect rx="6.0" ry="6.0" x="424.0" y="1190.32" width="52.0" height="52.0" class="key"/>
<text x="450.0" y="1216.32" class="tap">
<tspan x="450.0" dy="-0.6em">VOL</tspan><tspan x="450.0" dy="1.2em">DOWN</tspan></text>
<rect rx="6.0" ry="6.0" x="480.0" y="1182.48" width="52.0" height="52.0" class="key"/>
<text x="506.0" y="1208.48" class="tap">F1</text>
<rect rx="6.0" ry="6.0" x="536.0" y="1166.8" width="52.0" height="52.0" class="key"/>
<text x="562.0" y="1192.8" class="tap">F2</text>
<rect rx="6.0" ry="6.0" x="592.0" y="1184.1599999999999" width="52.0" height="52.0" class="key"/>
<text x="618.0" y="1210.1599999999999" class="tap">F3</text>
<rect rx="6.0" ry="6.0" x="648.0" y="1218.8799999999999" width="52.0" height="52.0" class="key"/>
<text x="674.0" y="1244.8799999999999" class="tap">F4</text>
<rect rx="6.0" ry="6.0" x="228.0" y="1264.8" width="52.0" height="52.0" class="held key"/>
<rect rx="6.0" ry="6.0" x="284.0" y="1278.8" width="52.0" height="52.0" class="key"/>
<text x="310.0" y="1304.8" class="tap">SPACE</text>
<rect rx="6.0" ry="6.0" x="396.0" y="1278.8" width="52.0" height="52.0" class="key"/>
<text x="422.0" y="1304.8" class="tap">ENTER</text>
<rect rx="6.0" ry="6.0" x="452.0" y="1264.8" width="52.0" height="52.0" class="held key"/>
</g>
<g class="layer-BLUETOOTH">
<text x="30.0" y="1360.8" class="label">BLUETOOTH:</text>
<rect rx="6.0" ry="6.0" x="32.0" y="1442.8799999999999" width="52.0" height="52.0" class="key"/>
<text x="58.0" y="1468.8799999999999" class="tap">RESET</text>
<rect rx="6.0" ry="6.0" x="88.0" y="1408.1599999999999" width="52.0" height="52.0" class="ghost key"/>
<rect rx="6.0" ry="6.0" x="144.0" y="1390.8" width="52.0" height="52.0" class="ghost key"/>
<rect rx="6.0" ry="6.0" x="200.0" y="1406.48" width="52.0" height="52.0" class="key"/>
<text x="226.0" y="1432.48" class="tap">
<tspan x="226.0" dy="-0.6em">PROFIL</tspan><tspan x="226.0" dy="1.2em">4</tspan></text>
<rect rx="6.0" ry="6.0" x="256.0" y="1414.32" width="52.0" height="52.0" class="key"/>
<text x="282.0" y="1440.32" class="tap">
<tspan x="282.0" dy="-0.6em">PROFIL</tspan><tspan x="282.0" dy="1.2em">1</tspan></text>
<rect rx="6.0" ry="6.0" x="424.0" y="1414.32" width="52.0" height="52.0" class="ghost key"/>
<rect rx="6.0" ry="6.0" x="480.0" y="1406.48" width="52.0" height="52.0" class="ghost key"/>
<rect rx="6.0" ry="6.0" x="536.0" y="1390.8" width="52.0" height="52.0" class="ghost key"/>
<rect rx="6.0" ry="6.0" x="592.0" y="1408.1599999999999" width="52.0" height="52.0" class="ghost key"/>
<rect rx="6.0" ry="6.0" x="648.0" y="1442.8799999999999" width="52.0" height="52.0" class="key"/>
<text x="674.0" y="1468.8799999999999" class="tap">RESET</text>
<rect rx="6.0" ry="6.0" x="32.0" y="1498.8799999999999" width="52.0" height="52.0" class="key"/>
<text x="58.0" y="1524.8799999999999" class="tap">BTLDR</text>
<rect rx="6.0" ry="6.0" x="88.0" y="1464.1599999999999" width="52.0" height="52.0" class="ghost key"/>
<rect rx="6.0" ry="6.0" x="144.0" y="1446.8" width="52.0" height="52.0" class="ghost key"/>
<rect rx="6.0" ry="6.0" x="200.0" y="1462.48" width="52.0" height="52.0" class="key"/>
<text x="226.0" y="1488.48" class="tap">
<tspan x="226.0" dy="-0.6em">PROFIL</tspan><tspan x="226.0" dy="1.2em">5</tspan></text>
<rect rx="6.0" ry="6.0" x="256.0" y="1470.32" width="52.0" height="52.0" class="key"/>
<text x="282.0" y="1496.32" class="tap">
<tspan x="282.0" dy="-0.6em">PROFIL</tspan><tspan x="282.0" dy="1.2em">2</tspan></text>
<rect rx="6.0" ry="6.0" x="424.0" y="1470.32" width="52.0" height="52.0" class="ghost key"/>
<rect rx="6.0" ry="6.0" x="480.0" y="1462.48" width="52.0" height="52.0" class="ghost key"/>
<rect rx="6.0" ry="6.0" x="536.0" y="1446.8" width="52.0" height="52.0" class="ghost key"/>
<rect rx="6.0" ry="6.0" x="592.0" y="1464.1599999999999" width="52.0" height="52.0" class="ghost key"/>
<rect rx="6.0" ry="6.0" x="648.0" y="1498.8799999999999" width="52.0" height="52.0" class="key"/>
<text x="674.0" y="1524.8799999999999" class="tap">BTLDR</text>
<rect rx="6.0" ry="6.0" x="32.0" y="1554.8799999999999" width="52.0" height="52.0" class="ghost key"/>
<text x="58.0" y="1580.8799999999999" class="ghost tap">ZMK</text>
<rect rx="6.0" ry="6.0" x="88.0" y="1520.1599999999999" width="52.0" height="52.0" class="held key"/>
<rect rx="6.0" ry="6.0" x="144.0" y="1502.8" width="52.0" height="52.0" class="held key"/>
<rect rx="6.0" ry="6.0" x="200.0" y="1518.48" width="52.0" height="52.0" class="key"/>
<text x="226.0" y="1544.48" class="tap">
<tspan x="226.0" dy="-0.6em">BT</tspan><tspan x="226.0" dy="1.2em">CLR</tspan></text>
<rect rx="6.0" ry="6.0" x="256.0" y="1526.32" width="52.0" height="52.0" class="key"/>
<text x="282.0" y="1552.32" class="tap">
<tspan x="282.0" dy="-0.6em">PROFIL</tspan><tspan x="282.0" dy="1.2em">3</tspan></text>
<rect rx="6.0" ry="6.0" x="424.0" y="1526.32" width="52.0" height="52.0" class="ghost key"/>
<rect rx="6.0" ry="6.0" x="480.0" y="1518.48" width="52.0" height="52.0" class="ghost key"/>
<rect rx="6.0" ry="6.0" x="536.0" y="1502.8" width="52.0" height="52.0" class="ghost key"/>
<rect rx="6.0" ry="6.0" x="592.0" y="1520.1599999999999" width="52.0" height="52.0" class="ghost key"/>
<rect rx="6.0" ry="6.0" x="648.0" y="1554.8799999999999" width="52.0" height="52.0" class="ghost key"/>
<text x="674.0" y="1580.8799999999999" class="ghost tap">ZMK</text>
<rect rx="6.0" ry="6.0" x="228.0" y="1600.8" width="52.0" height="52.0" class="held key"/>
<rect rx="6.0" ry="6.0" x="284.0" y="1614.8" width="52.0" height="52.0" class="ghost key"/>
<rect rx="6.0" ry="6.0" x="396.0" y="1614.8" width="52.0" height="52.0" class="ghost key"/>
<rect rx="6.0" ry="6.0" x="452.0" y="1600.8" width="52.0" height="52.0" class="ghost key"/>
</g>
</svg>
